<svg xmlns="http://www.w3.org/2000/svg" viewBox="0 0 640 640" role="img" aria-label="Builder Lead Converter"><defs><style>      .cls-1 {        fill: #1d6da2;      }      .cls-2 {        fill: #1c6ba0;      }      .cls-3 {        fill: #3f3f3f;      }      .cls-4 {        fill: #298849;      }    </style></defs><rect width="640" height="640" rx="120" fill="#ffffff"/><g transform="translate(34.0 77.9) scale(0.9646)"><path class="cls-4" d="M592.25,191.21c-.01-1.91-1.41-4.5-2.98-5.61-41.65-29.63-83.41-59.09-125.14-88.61-37.78-26.72-75.54-53.48-113.32-80.2-7.96-5.63-15.96-11.21-23.89-16.78-17.16,12.15-33.85,24.02-50.59,35.81-65.05,45.83-130.11,91.65-195.18,137.45-25.59,18.01-51.23,35.96-76.78,54.03-1.74,1.23-4.09,3.26-4.13,4.97-.34,13.56-.19,27.13-.19,41.64,20.61-14.47,40.42-28.38,61.21-42.98l40.62-28.79c25.86-17.91,51.59-36.01,77.3-54.14,47.76-33.67,95.5-67.37,143.15-101.19,3.31-2.35,5.46-2.7,8.99-.19,73.87,52.4,147.83,104.67,221.84,156.85,2.85,2.01,3.68,4.17,3.66,7.45-.11,22-.06,44-.06,65.99,0,2.43,0,4.86,0,7.85,10.93,0,21.07-.14,31.19,.08,3.62,.08,4.51-1.28,4.5-4.64-.1-29.66,0-59.33-.19-88.99Z"></path><path class="cls-2" d="M61.67,236.66c0,85.83,0,171.65-.02,257.48,0,7.5-.03,7.51,7.19,7.51,74.33,0,148.65,0,222.98,0,2.79,0,5.58,0,8.66,0V188.54c-4.73,3.27-8.95,6.12-13.11,9.05-54.51,38.54-108.85,77.34-163.69,115.41-9.1,6.31-13.5,12.66-12.15,23.73,.96,7.88,.2,15.98,.24,23.98,0,1.23,.17,2.46,.31,4.39,51.13-36.14,101.66-71.85,152.93-108.09v208.65c-2.51,.14-4.78,.37-7.06,.37-51.33,.02-102.66,.02-153.99,.03q-7.02,0-7.02-7.16c0-82.33,.03-164.65-.1-246.98,0-4.47,1.31-7.21,5.01-9.78l-40.62,28.79c.22,2.85,.43,4.29,.43,5.73Z"></path><path class="cls-2" d="M61.7,173.8c0-6.16,0-10.96,0-15.75,0-21.3,.25-42.6-.15-63.89-.12-6.17,1.49-10.02,6.87-13.34,9.56-5.9,18.61-12.65,28.65-19.58,0,4.1,0,7.35,0,10.6,0,24.13-.08,48.25,.05,72.38,.02,3.55-1.1,5.78-4.07,7.78-10.16,6.85-20.14,13.97-31.35,21.8Z"></path><path class="cls-3" d="M388.42,465.48c2.77,.13,4.4,.27,6.04,.27,51.82,.02,103.64,.03,155.46,.03,6.62,0,6.62-.03,6.63-6.9,0-13.5,0-26.99,0-40.49,0-1.96,0-3.92,0-6.25h35.7c.11,1.49,.3,2.93,.3,4.37,.02,26.83-.08,53.65,.11,80.48,.03,4.12-1.32,4.97-5.13,4.96-76.64-.1-153.29-.08-229.93-.1-1.45,0-2.91-.17-4.79-.28v-238.33c-13.98,9.9-27.04,19.15-41.13,29.12,0-3.16,0-5.37,0-7.58,0-11-.1-21.99,.08-32.99,.03-1.7,.88-4.04,2.16-4.96,24.46-17.56,49.05-34.96,74.5-53.02V465.48Z"></path></g></svg>
